<mxfile host="app.diagrams.net" modified="2023-09-28T04:34:08.018Z" agent="Mozilla/5.0 (Windows NT 10.0; Win64; x64) AppleWebKit/537.36 (KHTML, like Gecko) Chrome/117.0.0.0 Safari/537.36" version="21.8.2" etag="TcksbWU4edskOtUFQ0_W" type="github">
  <diagram name="Page-1" id="lAMcZ7-RkkxOliwvwSL9">
    <mxGraphModel>
      <root>
        <mxCell id="0" />
        <mxCell id="1" parent="0" />
      </root>
    </mxGraphModel>
  </diagram>
</mxfile>
